# xmcd
#
# Track frame offsets: 
#        150
#        14472
#        27749
#        47796
#        69274
#        85434
#        101612
#        116386
#        141541
#        155179
#        166052
#        180129
#        193515
#        208230
#
# Disc length: 3064 seconds
#
# Revision: 3
# Processed by: cddbd v1.5.2PL0 Copyright (c) Steve Scherf et al.
# Submitted via: ExactAudioCopy v1.3
#
DISCID=c30bf60e
DTITLE=Various Artist - I heard it on NPR: Shake These Blues
DYEAR=2003
DGENRE=Blues
TTITLE0=Bessie Smith and Louis Armstrong - St. Louis Blues
TTITLE1=Muddy Waters - Mannish Boy
TTITLE2=Mississippi Fred McDowell - Good Morning Little School Girl
TTITLE3=Bonnie Raitt - No Gettin‘ Over You
TTITLE4=Alvin Youngblood Hart - How Long Before I Change My Clothes
TTITLE5=Otis Taylor - My Soul’s in Louisiana
TTITLE6=Etta James - A Sunday Kind of Love
TTITLE7=Buddy Guy - One Room Country Shack
TTITLE8=T‑Bone Walker - Call It Stormy Monday
TTITLE9=Robert Johnson - Love in Vain
TTITLE10=John Lee Hooker - Boogie Chillen
TTITLE11=B.B. King - Rock Me Baby
TTITLE12=Shemekia Copeland - Not Tonight
TTITLE13=Susan Tedeschi - It Hurt So Bad
EXTD=YEAR: 2003
EXTT0=
EXTT1=
EXTT2=
EXTT3=
EXTT4=
EXTT5=
EXTT6=
EXTT7=
EXTT8=
EXTT9=
EXTT10=
EXTT11=
EXTT12=
EXTT13=
PLAYORDER=
